<svg width="21" height="20" viewBox="0 0 21 20" fill="none" xmlns="http://www.w3.org/2000/svg">
<g clip-path="url(#clip0_19_267)">
<path d="M8.38411 -0.0301309C8.248 -0.0321309 8.09782 -0.0134065 7.91374 0.0463699C7.54561 0.165496 7.3814 0.344623 7.19596 0.520002C7.01054 0.695181 6.84024 0.884527 6.67513 1.07339C6.34491 1.45126 5.94611 1.86433 5.99317 1.83022C6.04025 1.79639 5.52853 2.04533 5.06706 2.24201C4.83633 2.34018 4.59623 2.44765 4.37207 2.56916C4.14789 2.69106 3.93252 2.78831 3.70476 3.10138C3.47699 3.41433 3.44743 3.65293 3.40039 3.90379C3.35339 4.15465 3.33022 4.41074 3.30761 4.66063C3.26236 5.1604 3.1773 5.72012 3.19531 5.66486C3.21333 5.60956 2.94372 6.11499 2.68587 6.54539C2.55695 6.76067 2.4262 6.99047 2.31641 7.22085C2.20661 7.45123 2.09707 7.65564 2.09668 8.04279C2.0963 8.42994 2.20871 8.63573 2.31803 8.86636C2.42736 9.09706 2.55901 9.3182 2.6875 9.53367C2.94448 9.96458 3.21159 10.4712 3.19369 10.4158C3.17577 10.3606 3.25519 10.93 3.29948 11.4298C3.32166 11.6796 3.34573 11.9357 3.39226 12.1867C3.43876 12.4378 3.46459 12.6773 3.69173 12.9907C3.91886 13.3042 4.13676 13.4022 4.36068 13.5246C4.58461 13.6467 4.8235 13.7482 5.05404 13.8468C5.51511 14.0444 6.03038 14.301 5.9834 14.2667C5.9364 14.233 6.3294 14.6371 6.65886 15.0154C6.82358 15.2047 6.99298 15.3981 7.17806 15.5737C7.36313 15.7495 7.52793 15.9258 7.89583 16.0457C8.26372 16.1659 8.49571 16.1205 8.7487 16.088C9.0017 16.0552 9.2545 16.0056 9.49902 15.9497C9.98807 15.8383 10.5516 15.7349 10.4935 15.7348C10.4354 15.7348 10.9959 15.834 11.4847 15.9464C11.7291 16.0026 11.9788 16.0598 12.2318 16.0929C12.4847 16.1272 12.7181 16.1697 13.0863 16.0506C13.4544 15.9315 13.6186 15.7587 13.804 15.5835C13.9895 15.4083 14.1679 15.2122 14.333 15.0236C14.6632 14.6457 15.0539 14.2407 15.0068 14.2749C14.9598 14.3087 15.478 14.0598 15.9395 13.8631C16.1702 13.7649 16.4038 13.6558 16.6279 13.5343C16.8521 13.4124 17.0675 13.3168 17.2952 13.0037C17.523 12.6908 17.5526 12.4522 17.5996 12.2013C17.6466 11.9505 17.6698 11.6944 17.6924 11.4445C17.7376 10.9447 17.8227 10.3768 17.8047 10.4321C17.7867 10.4874 18.0563 9.98202 18.3141 9.55158C18.4431 9.3363 18.5738 9.11464 18.6836 8.88426C18.7934 8.65388 18.9029 8.44951 18.9033 8.06232C18.9037 7.67517 18.7913 7.46937 18.682 7.23875C18.5726 7.00805 18.4426 6.77877 18.3141 6.56329C18.0571 6.13235 17.7884 5.63233 17.8063 5.68764C17.8242 5.74284 17.7448 5.1735 17.7005 4.67365C17.6784 4.4235 17.6543 4.16777 17.6077 3.91681C17.5612 3.66565 17.5354 3.42622 17.3083 3.11277C17.0811 2.79929 16.8632 2.70294 16.6393 2.58055C16.4154 2.45839 16.1765 2.34912 15.946 2.25014C15.4849 2.05259 14.9696 1.80434 15.0166 1.83836C15.0636 1.8721 14.6722 1.45839 14.3428 1.0799C14.178 0.89063 14.007 0.698935 13.8219 0.523256C13.6369 0.347457 13.4721 0.171131 13.1042 0.0512508C12.7363 -0.0689076 12.5043 -0.0174159 12.2513 0.0154423C11.9983 0.0483006 11.7455 0.0995466 11.501 0.155417C11.0119 0.266759 10.4484 0.369844 10.5065 0.37026C10.5646 0.370319 10.0041 0.262974 9.5153 0.150534C9.27089 0.0943173 9.02116 0.0436798 8.76823 0.0105598C8.64179 -0.0065986 8.52023 -0.0281233 8.38411 -0.0301309ZM10.5293 4.35301C10.6579 4.35404 10.7845 4.385 10.8992 4.44346C11.0138 4.50192 11.1134 4.58628 11.1901 4.68992L12.1553 5.99689L13.7829 6.61212C13.9023 6.65739 14.0098 6.72967 14.097 6.82337C14.1841 6.91706 14.2486 7.02966 14.2855 7.15242C14.3223 7.27518 14.3305 7.40482 14.3093 7.53128C14.2882 7.65774 14.2384 7.77763 14.1637 7.88165L13.223 9.20978L13.1432 10.9546C13.1372 11.082 13.1023 11.2063 13.041 11.3181C12.9797 11.4298 12.8938 11.526 12.7898 11.5992C12.6858 11.6724 12.5664 11.7208 12.4409 11.7405C12.3154 11.7602 12.1871 11.7508 12.0658 11.713L10.513 11.2231L8.83659 11.6821C8.71311 11.7172 8.58323 11.7231 8.45711 11.6994C8.33099 11.6757 8.21205 11.623 8.10959 11.5454C8.00714 11.4679 7.92395 11.3676 7.86654 11.2524C7.80913 11.1372 7.77905 11.0102 7.77865 10.8813L7.76565 9.24884L6.81513 7.79051C6.74492 7.68395 6.70001 7.56264 6.68384 7.43591C6.66768 7.30917 6.68069 7.1804 6.72188 7.0595C6.76307 6.93859 6.83135 6.82878 6.92144 6.73853C7.01154 6.64827 7.12106 6.57997 7.24156 6.53888L8.79104 6.02618L9.87991 4.66388C9.95149 4.57462 10.0406 4.50111 10.1417 4.44791C10.2428 4.39471 10.3537 4.36296 10.4675 4.35463C10.4881 4.35331 10.5087 4.35279 10.5293 4.35301Z" fill="white"/>
<path d="M4.66992 14.7843V17.4471C4.66992 18.1617 4.94015 18.8183 5.40071 19.3367C5.63096 19.5959 5.91734 19.8273 6.29265 19.9519C6.66795 20.0767 7.14645 20.0573 7.54265 19.8592L10.5016 18.3829L13.4606 19.8592C13.577 19.9167 13.7052 19.9462 13.835 19.9454C15.2055 19.9454 16.3333 18.8176 16.3333 17.4471V14.7957C15.9984 14.9468 15.5775 15.1392 15.6139 15.1131C15.6673 15.0743 15.2237 15.5339 14.849 15.9627C14.6617 16.1767 14.4588 16.3987 14.2484 16.5975C14.038 16.7962 13.8522 16.9929 13.4346 17.1281C13.0169 17.2632 12.7514 17.2143 12.4645 17.1753C12.1775 17.1375 11.8956 17.0732 11.6182 17.0092C11.0635 16.8817 10.4277 16.7699 10.4935 16.77C10.5594 16.77 9.9188 16.8862 9.36393 17.0125C9.08648 17.0758 8.79962 17.1332 8.5127 17.1704C8.22567 17.2072 7.96328 17.2579 7.5459 17.1215C7.12845 16.9855 6.94055 16.7854 6.73047 16.5861C6.52046 16.3868 6.32805 16.1677 6.14128 15.9529C5.76748 15.5237 5.32307 15.0649 5.3763 15.1033C5.41206 15.1294 4.99659 14.9351 4.66992 14.7843Z" fill="white"/>
</g>
<defs>
<clipPath id="clip0_19_267">
<rect width="20" height="20" fill="white" transform="translate(0.5)"/>
</clipPath>
</defs>
</svg>
