<svg width="21" height="20" viewBox="0 0 21 20" fill="none" xmlns="http://www.w3.org/2000/svg">
<g clip-path="url(#clip0_19_273)">
<path fill-rule="evenodd" clip-rule="evenodd" d="M11.2768 5.87723L10.4915 3.33337L9.72289 5.8597H7.1665L9.23836 7.43862L8.43636 10L10.5082 8.4211L12.58 10L11.7613 7.45619L13.8332 5.87723H11.2768Z" fill="white"/>
<path fill-rule="evenodd" clip-rule="evenodd" d="M4.2244 0H16.7756V1.24147H20.5V5.65487C20.5 6.82537 20.035 7.94795 19.2074 8.77563C18.5325 9.45044 17.6617 9.88416 16.7286 10.0213C16.5915 10.9544 16.1578 11.8252 15.4829 12.5C14.6714 13.3116 13.5762 13.7745 12.4305 13.7922V15.5866C12.4305 15.7331 12.4886 15.8736 12.5923 15.9772C12.6959 16.0808 12.8365 16.1391 12.9829 16.1391C13.6596 16.1391 14.3084 16.4078 14.7869 16.8863C15.2653 17.3647 15.5342 18.0136 15.5342 18.6902V20H5.46586V18.6902C5.46586 18.0136 5.73467 17.3647 6.2131 16.8863C6.69154 16.4078 7.34044 16.1391 8.01707 16.1391C8.16359 16.1391 8.30411 16.0808 8.40771 15.9772C8.51131 15.8736 8.56952 15.7331 8.56952 15.5866V13.7922C7.42372 13.7745 6.32861 13.3116 5.51705 12.5C4.84223 11.8252 4.40852 10.9544 4.27133 10.0213C3.3383 9.88416 2.46747 9.45044 1.79266 8.77563C0.964978 7.94795 0.5 6.82537 0.5 5.65487V1.24147H4.2244V0ZM5.60242 1.37802V9.37927C5.60242 10.1843 5.92222 10.9564 6.49146 11.5256C7.06071 12.0949 7.83277 12.4147 8.6378 12.4147H9.94754V15.5866C9.94754 16.0985 9.74416 16.5896 9.38213 16.9517C9.02008 17.3136 8.52906 17.5171 8.01707 17.5171C7.70594 17.5171 7.40753 17.6406 7.18751 17.8607C6.98364 18.0646 6.86255 18.3357 6.84587 18.622H14.1542C14.1375 18.3357 14.0164 18.0646 13.8125 17.8607C13.5925 17.6406 13.2941 17.5171 12.9829 17.5171C12.4709 17.5171 11.9799 17.3136 11.6179 16.9517C11.2558 16.5896 11.0525 16.0985 11.0525 15.5866V12.4147H12.3622C13.1672 12.4147 13.9393 12.0949 14.5085 11.5256C15.0778 10.9564 15.3976 10.1843 15.3976 9.37927V1.37802H5.60242ZM4.2244 2.61949H1.87802V5.65487C1.87802 6.45991 2.19782 7.23197 2.76706 7.80122C3.17096 8.2051 3.67696 8.48343 4.2244 8.61103V2.61949ZM16.7756 8.61103V2.61949H19.122V5.65487C19.122 6.45991 18.8022 7.23197 18.2329 7.80122C17.8291 8.2051 17.323 8.48343 16.7756 8.61103Z" fill="white"/>
</g>
<defs>
<clipPath id="clip0_19_273">
<rect width="20" height="20" fill="white" transform="translate(0.5)"/>
</clipPath>
</defs>
</svg>
