<svg width="20" height="20" viewBox="0 0 20 20" fill="none" xmlns="http://www.w3.org/2000/svg">
<g clip-path="url(#clip0_7_204)">
<path d="M6.21609 12.9944C8.03731 12.5421 9.44845 11.1129 9.88868 9.26756C9.99723 8.8213 10.0093 8.61626 9.98517 7.89863C9.95501 6.93977 9.84646 6.51161 9.45448 5.75779C9.0625 5.00398 8.65845 4.52757 7.07845 2.9536C6.24624 2.12742 5.47434 1.31933 5.35976 1.16253C5.07029 0.77055 4.96777 0.782611 4.54564 1.28314C4.35266 1.50627 3.58075 2.29627 2.82694 3.04406C1.35549 4.49741 0.836864 5.12459 0.469002 5.91459C0.125262 6.63825 0.0408354 7.01214 0.0106821 7.92878C-0.0134401 8.61023 -0.00137901 8.82733 0.107171 9.26756C0.55343 11.1491 2.00679 12.5843 3.90037 13.0185C4.49739 13.1512 5.61304 13.1392 6.21609 12.9944Z" fill="#FF2A23"/>
<path d="M16.2205 18.9972C18.0417 18.5449 19.4528 17.1157 19.8931 15.2704C20.0016 14.8241 20.0137 14.6191 19.9896 13.9014C19.9594 12.9426 19.8509 12.5144 19.4589 11.7606C19.0669 11.0068 18.6628 10.5304 17.0828 8.95641C16.2506 8.13022 15.4787 7.32213 15.3642 7.16534C15.0747 6.77336 14.9722 6.78542 14.55 7.28595C14.3571 7.50908 13.5851 8.29908 12.8313 9.04686C11.3599 10.5002 10.8413 11.1274 10.4734 11.9174C10.1297 12.6411 10.0452 13.0149 10.0151 13.9316C9.99095 14.613 10.003 14.8301 10.1116 15.2704C10.5578 17.1519 12.0112 18.5872 13.9048 19.0213C14.5018 19.154 15.6174 19.142 16.2205 18.9972Z" fill="#FF2A23"/>
</g>
<defs>
<clipPath id="clip0_7_204">
<rect width="20" height="18.2274" fill="white" transform="translate(0 0.886292)"/>
</clipPath>
</defs>
</svg>
