<svg width="21" height="20" viewBox="0 0 21 20" fill="none" xmlns="http://www.w3.org/2000/svg">
<path d="M10.5 8.66671V16.6667M10.5 8.66671C10.5 6.79987 10.5 5.86645 10.1367 5.15341C9.81708 4.5262 9.30717 4.01627 8.67997 3.69668C7.96692 3.33337 7.03351 3.33337 5.16667 3.33337H4.33333C3.86662 3.33337 3.63327 3.33337 3.45501 3.4242C3.29821 3.5041 3.17072 3.63158 3.09082 3.78838C3 3.96664 3 4.2 3 4.66671V13.6667C3 14.1335 3 14.3668 3.09082 14.545C3.17072 14.7019 3.29821 14.8293 3.45501 14.9092C3.63327 15 3.86662 15 4.33333 15H6.7889C7.23906 15 7.46413 15 7.68178 15.0389C7.87496 15.0733 8.06342 15.1303 8.24326 15.2089C8.44587 15.2973 8.63314 15.4221 9.00767 15.6719L10.5 16.6667M10.5 8.66671C10.5 6.79987 10.5 5.86645 10.8633 5.15341C11.1829 4.5262 11.6928 4.01627 12.32 3.69668C13.0331 3.33337 13.9665 3.33337 15.8333 3.33337H16.6667C17.1334 3.33337 17.3668 3.33337 17.545 3.4242C17.7018 3.5041 17.8293 3.63158 17.9092 3.78838C18 3.96664 18 4.2 18 4.66671V13.6667C18 14.1335 18 14.3668 17.9092 14.545C17.8293 14.7019 17.7018 14.8293 17.545 14.9092C17.3668 15 17.1334 15 16.6667 15H14.2111C13.7609 15 13.5358 15 13.3182 15.0389C13.125 15.0733 12.9366 15.1303 12.7568 15.2089C12.5542 15.2973 12.3668 15.4221 11.9923 15.6719L10.5 16.6667" stroke="white" stroke-width="2" stroke-linecap="round" stroke-linejoin="round"/>
</svg>
