<svg width="20" height="20" viewBox="0 0 20 20" fill="none" xmlns="http://www.w3.org/2000/svg">
<path d="M1.6665 9.99998C1.6665 6.85728 1.6665 5.28594 2.64281 4.30962C3.61913 3.33331 5.19047 3.33331 8.33317 3.33331H11.6665C14.8092 3.33331 16.3806 3.33331 17.3568 4.30962C18.3332 5.28594 18.3332 6.85728 18.3332 9.99998V11.6666C18.3332 14.8093 18.3332 16.3807 17.3568 17.357C16.3806 18.3333 14.8092 18.3333 11.6665 18.3333H8.33317C5.19047 18.3333 3.61913 18.3333 2.64281 17.357C1.6665 16.3807 1.6665 14.8093 1.6665 11.6666V9.99998Z" stroke="white" stroke-width="2"/>
<path opacity="0.5" d="M5.8335 3.33331V2.08331" stroke="white" stroke-width="2" stroke-linecap="round"/>
<path opacity="0.5" d="M14.1665 3.33331V2.08331" stroke="white" stroke-width="2" stroke-linecap="round"/>
<path opacity="0.5" d="M2.0835 7.5H17.9168" stroke="white" stroke-width="2" stroke-linecap="round"/>
<path d="M15.0002 14.1666C15.0002 14.6269 14.6271 15 14.1668 15C13.7066 15 13.3335 14.6269 13.3335 14.1666C13.3335 13.7064 13.7066 13.3333 14.1668 13.3333C14.6271 13.3333 15.0002 13.7064 15.0002 14.1666Z" fill="white"/>
<path d="M15.0002 10.8333C15.0002 11.2936 14.6271 11.6667 14.1668 11.6667C13.7066 11.6667 13.3335 11.2936 13.3335 10.8333C13.3335 10.3731 13.7066 10 14.1668 10C14.6271 10 15.0002 10.3731 15.0002 10.8333Z" fill="white"/>
<path d="M10.8332 14.1666C10.8332 14.6269 10.4601 15 9.99984 15C9.53959 15 9.1665 14.6269 9.1665 14.1666C9.1665 13.7064 9.53959 13.3333 9.99984 13.3333C10.4601 13.3333 10.8332 13.7064 10.8332 14.1666Z" fill="white"/>
<path d="M10.8332 10.8333C10.8332 11.2936 10.4601 11.6667 9.99984 11.6667C9.53959 11.6667 9.1665 11.2936 9.1665 10.8333C9.1665 10.3731 9.53959 10 9.99984 10C10.4601 10 10.8332 10.3731 10.8332 10.8333Z" fill="white"/>
<path d="M6.66667 14.1666C6.66667 14.6269 6.29357 15 5.83333 15C5.3731 15 5 14.6269 5 14.1666C5 13.7064 5.3731 13.3333 5.83333 13.3333C6.29357 13.3333 6.66667 13.7064 6.66667 14.1666Z" fill="white"/>
<path d="M6.66667 10.8333C6.66667 11.2936 6.29357 11.6667 5.83333 11.6667C5.3731 11.6667 5 11.2936 5 10.8333C5 10.3731 5.3731 10 5.83333 10C6.29357 10 6.66667 10.3731 6.66667 10.8333Z" fill="white"/>
</svg>
