<svg width="20" height="20" viewBox="0 0 20 20" fill="none" xmlns="http://www.w3.org/2000/svg">
<path fill-rule="evenodd" clip-rule="evenodd" d="M4.6665 17.3334C4.29832 17.3334 3.99984 17.0349 3.99984 16.6667L3.99984 3.33335C3.99984 2.96522 4.29832 2.66669 4.6665 2.66669H12.6665C13.0347 2.66669 13.3332 2.96522 13.3332 3.33335L13.3332 16.6667C13.3332 17.0349 13.0347 17.3334 12.6665 17.3334H4.6665ZM14.5526 17.3334C14.2781 18.1102 13.5373 18.6667 12.6665 18.6667H4.6665C3.56193 18.6667 2.6665 17.7713 2.6665 16.6667L2.6665 3.33335C2.6665 2.22882 3.56193 1.33335 4.6665 1.33335H12.6665C13.5373 1.33335 14.2781 1.88989 14.5526 2.66669H15.3332C16.4377 2.66669 17.3332 3.56215 17.3332 4.66669V15.3334C17.3332 16.4379 16.4377 17.3334 15.3332 17.3334H14.5526ZM14.6665 4.00002H15.3332C15.7013 4.00002 15.9998 4.29855 15.9998 4.66669V15.3334C15.9998 15.7015 15.7013 16 15.3332 16H14.6665L14.6665 4.00002Z" fill="white"/>
</svg>
