<svg width="20" height="20" viewBox="0 0 20 20" fill="none" xmlns="http://www.w3.org/2000/svg">
<path d="M19.9391 12.6131L18.7766 7.66933C18.1878 5.47199 16.1966 3.94421 13.9217 3.94421H6.07827C3.80331 3.94421 1.81218 5.47195 1.22339 7.66933L0.0608864 12.6131C-0.236692 14.0312 0.58198 15.446 1.96034 15.8944L2.02831 15.9162C3.30401 16.3315 4.69581 15.7962 5.36538 14.6337L6.37686 13.138C6.63085 12.6971 7.101 12.4252 7.60929 12.4252H12.3908C12.8991 12.4252 13.3692 12.6971 13.6232 13.138L14.6346 14.6337C15.3042 15.7962 16.6963 16.3315 17.9721 15.9162L18.0397 15.8944C19.418 15.446 20.2367 14.0312 19.9391 12.6131ZM7.46272 9.30007H5.83425V10.9288H4.41647V9.30007H2.788V7.88292H4.41647V6.2548H5.83425V7.88292H7.46272V9.30007ZM14.6378 5.9155C15.131 5.9155 15.5303 6.31476 15.5303 6.808C15.5303 7.30058 15.131 7.69984 14.6378 7.69984C14.1452 7.69984 13.746 7.30058 13.746 6.808C13.746 6.31472 14.1452 5.9155 14.6378 5.9155ZM12.8535 9.48445C12.3609 9.48445 11.9613 9.08484 11.9613 8.59164C11.9613 8.09937 12.3609 7.6998 12.8535 7.6998C13.3464 7.6998 13.7456 8.09937 13.7456 8.59164C13.7457 9.08488 13.3464 9.48445 12.8535 9.48445ZM14.6378 11.2684C14.1452 11.2684 13.746 10.8692 13.746 10.3766C13.746 9.88335 14.1452 9.4841 14.6378 9.4841C15.131 9.4841 15.5303 9.88335 15.5303 10.3766C15.5303 10.8692 15.131 11.2684 14.6378 11.2684ZM16.4221 9.48445C15.9295 9.48445 15.5302 9.08484 15.5302 8.59164C15.5302 8.09937 15.9295 7.6998 16.4221 7.6998C16.915 7.6998 17.3146 8.09937 17.3146 8.59164C17.3146 9.08488 16.915 9.48445 16.4221 9.48445Z" fill="white"/>
</svg>
