<svg width="200" height="43" viewBox="0 0 200 43" fill="none" xmlns="http://www.w3.org/2000/svg">
<g clip-path="url(#clip0_7_120)">
<path d="M15.8229 1.519C15.0845 2.36288 12.3419 5.18988 9.70473 7.80592C4.70473 12.7637 3.29122 14.4515 1.91992 17.0886C0.548608 19.7257 0.168861 21.2236 0.0633756 24.5781C-0.0210126 27.0886 0.0211815 27.8059 0.400928 29.3671C1.70895 34.8945 5.54861 39.4093 10.7385 41.5612C15.0845 43.3544 20.5908 43.2701 24.768 41.3713C27.7427 40.0211 31.4347 36.8777 31.4347 35.6751C31.4347 35.5485 30.6119 34.557 29.5992 33.481C26.1182 29.8312 24.1984 26.7511 23.0803 23.0802C22.5528 21.3713 22.5106 20.8861 22.4895 17.7215C22.4684 13.8608 22.7849 12.1308 24.0507 9.346C24.4094 8.58651 24.6836 7.80592 24.6836 7.61604C24.6836 7.42617 23.9663 6.56119 23.0803 5.69621C22.2153 4.83123 20.6752 3.18567 19.6836 2.04642C18.6921 0.92828 17.7216 1.14441e-05 17.5106 1.14441e-05C17.3208 1.14441e-05 16.5613 0.696213 15.8229 1.519Z" fill="#FF2A23"/>
<path d="M38.1436 0.421959C31.7723 2.00423 26.8355 7.00423 25.2955 13.4599C24.9157 15.0211 24.8735 15.7384 24.9579 18.249C25.0634 21.6034 25.4431 23.1013 26.8144 25.7384C28.1858 28.3755 29.5993 30.0422 35.1267 35.5485C38.0381 38.4388 40.7385 41.2658 41.1393 41.8144C42.152 43.1857 42.5107 43.1435 43.9874 41.3924C44.6625 40.6118 47.363 37.8481 50.0001 35.2321C55.1478 30.1477 56.9621 27.9536 58.249 25.1899C59.4516 22.6582 59.7469 21.3502 59.8524 18.1435C59.9368 15.7595 59.8946 15 59.5149 13.4599C57.9537 6.87766 52.8693 1.85656 46.2448 0.33757C44.1562 -0.126568 40.2533 -0.0843735 38.1436 0.421959Z" fill="#FF2A23"/>
<path d="M189.177 14.4937C189.093 14.557 189.03 18.038 189.03 22.1941V29.7468H190.401H191.772V26.8354C191.772 23.6498 191.983 22.5527 192.722 21.8143C193.882 20.654 196.076 20.7595 196.836 22.0042C197.215 22.5949 197.258 23.0802 197.258 26.2025V29.7468H198.629H200V25.7806C200 22.4051 199.937 21.7089 199.599 20.9916C198.882 19.4093 197.426 18.5654 195.338 18.5654C194.241 18.5654 192.722 19.0295 192.152 19.557C191.793 19.8734 191.772 19.789 191.772 17.1308V14.346H190.549C189.874 14.346 189.241 14.4093 189.177 14.4937Z" fill="#FF2A23"/>
<path d="M136.815 15.1899C134.937 15.4641 133.228 16.6245 132.722 17.9958C132.321 19.0295 132.447 20.5274 132.975 21.3291C133.84 22.616 134.557 22.9536 138.882 24.1561C140.401 24.5781 140.971 25.1055 140.886 25.9916C140.696 27.8692 136.857 28.1645 133.924 26.519C133.481 26.2869 133.101 26.1181 133.059 26.1814C133.038 26.2236 132.806 26.7089 132.553 27.2574C132.047 28.3544 132.047 28.3755 133.439 29.0717C135.654 30.1688 139.536 30.2743 141.498 29.2616C143.587 28.1856 144.367 26.1181 143.46 24.1139C142.912 22.8692 141.667 22.1308 138.882 21.4135C136.224 20.7384 135.971 20.6329 135.528 19.9367C135.232 19.4937 135.232 19.3038 135.443 18.7975C136.076 17.2363 138.924 17.0886 142.004 18.4388C142.342 18.5865 142.405 18.5021 143.186 16.5401C143.376 16.0548 139.409 14.8734 138.08 15C137.975 15.0211 137.384 15.1055 136.815 15.1899Z" fill="#FF2A23"/>
<path d="M69.4092 22.4895V29.7679L73.9029 29.7047C78.2066 29.6414 78.4176 29.6203 79.5358 29.0928C81.2235 28.3122 82.1729 27.384 82.9535 25.7806C83.5864 24.4937 83.6497 24.1983 83.6497 22.4684C83.6286 20.9916 83.5442 20.3587 83.1856 19.5992C82.1729 17.3629 79.9577 15.8017 77.2784 15.4009C76.4978 15.2954 74.3881 15.1899 72.637 15.1899H69.4092V22.4895ZM77.4893 18.0169C78.9029 18.4388 79.7256 19.135 80.2953 20.3376C81.2446 22.384 80.8227 24.7257 79.2615 26.0971C78.2066 27.0253 76.7088 27.4262 74.3248 27.4262H72.3628V22.5739V17.7215H74.4303C75.5906 17.7215 76.9408 17.8481 77.4893 18.0169Z" fill="#FF2A23"/>
<path d="M88.9029 18.7764C85.5695 19.8101 83.9662 23.692 85.5484 26.8987C86.5611 28.9662 88.7341 30.1055 91.329 29.9156C93.5864 29.7468 95.2109 28.7553 96.1181 26.962C96.8354 25.5696 96.983 23.9451 96.5189 22.5105C95.7805 20.1266 93.8607 18.7553 91.1392 18.6498C90.2742 18.6076 89.2615 18.6709 88.9029 18.7764ZM92.5949 21.4557C94.4303 22.8481 94.4303 25.7173 92.5738 27.0464C91.7088 27.6582 89.9999 27.7004 89.156 27.1308C87.7425 26.2025 87.2784 23.7975 88.2489 22.3418C89.1982 20.9072 91.2657 20.4852 92.5949 21.4557Z" fill="#FF2A23"/>
<path d="M102.869 18.8818C102.426 19.0295 101.962 19.2616 101.836 19.3882C101.477 19.7468 101.266 19.6624 101.266 19.1983C101.266 18.8186 101.118 18.7764 99.8947 18.7764H98.5234V24.2616V29.7468H99.8947H101.266V26.7299C101.266 25.0844 101.372 23.3966 101.477 22.9747C101.899 21.4557 103.608 20.6329 105.211 21.1603C106.54 21.5823 106.751 22.2785 106.751 26.308V29.7468H108.123H109.494V25.7806C109.494 22.384 109.431 21.7089 109.093 20.9705C108.186 18.9662 105.317 17.9958 102.869 18.8818Z" fill="#FF2A23"/>
<path d="M114.895 18.903C113.46 19.346 111.962 20.8861 111.519 22.384C110.38 26.2026 112.658 29.5992 116.582 29.9156C118.608 30.0633 120.127 29.5359 121.414 28.2068C122.595 26.9831 122.996 25.9916 122.996 24.2405C122.996 22.4051 122.637 21.519 121.435 20.3376C119.789 18.6709 117.384 18.1435 114.895 18.903ZM118.945 21.4768C120.317 22.4684 120.675 24.8945 119.663 26.3291C119.072 27.1519 117.595 27.7426 116.561 27.5528C114.241 27.1097 113.165 23.9663 114.726 22.1097C115.802 20.8439 117.637 20.5696 118.945 21.4768Z" fill="#FF2A23"/>
<path d="M129.262 18.8818C128.797 19.0295 128.207 19.3671 127.933 19.6413L127.426 20.1055V19.4515V18.7764H126.16H124.895V24.2616V29.7468H126.266H127.637V26.5612C127.637 22.7848 127.848 22.1097 129.198 21.4979C129.684 21.2869 130.38 21.097 130.76 21.097H131.435V19.8312V18.5654H130.76C130.38 18.5865 129.705 18.7131 129.262 18.8818Z" fill="#FF2A23"/>
<path d="M148.523 18.8819C147.215 19.3038 146.14 20.2532 145.486 21.5612C144.789 22.9536 144.726 25.3587 145.338 26.6878C146.498 29.2827 149.874 30.5696 153.017 29.6625C154.072 29.346 155.507 28.4388 155.486 28.1013C155.464 28.0169 155.148 27.5739 154.747 27.1308C154.051 26.3502 153.988 26.3291 153.629 26.6456C153.059 27.1519 151.794 27.6372 151.013 27.6372C150.064 27.6161 148.692 26.9621 148.144 26.2658C147.237 25.1266 147.3 25.1055 151.878 25.1055C155.76 25.1055 156.097 25.0844 156.203 24.7258C156.35 24.3038 156.076 22.595 155.718 21.7089C155.401 20.8439 154.241 19.6414 153.291 19.1561C152.173 18.5865 149.853 18.4388 148.523 18.8819ZM152.258 21.308C152.827 21.6456 153.587 22.6794 153.587 23.1013C153.587 23.1646 152.258 23.2068 150.633 23.2068C148.228 23.2068 147.68 23.1435 147.68 22.9114C147.68 22.4895 148.713 21.308 149.241 21.0971C150.042 20.7595 151.561 20.865 152.258 21.308Z" fill="#FF2A23"/>
<path d="M159.705 18.8818C158.439 19.2405 157.595 19.7257 157.595 20.0633C157.595 20.4008 158.502 21.962 158.629 21.8776C160.949 20.5485 163.671 20.6329 164.325 22.0675C164.789 23.1013 164.726 23.1434 162.173 23.2489C159.536 23.3544 158.481 23.692 157.722 24.7468C157.11 25.5907 157.11 27.5738 157.722 28.3966C158.987 30.1055 162.722 30.4852 164.304 29.0506L164.768 28.6287V29.1772C164.768 29.7257 164.81 29.7468 166.034 29.7468H167.3V25.8861C167.279 20.9283 167.025 20.1477 165.084 19.135C163.966 18.5654 161.308 18.4388 159.705 18.8818ZM164.557 25.8017C164.557 26.9198 163.608 27.7004 162.046 27.8059C160.992 27.8903 160.738 27.827 160.359 27.4472C159.916 27.0042 159.789 26.2658 160.084 25.8017C160.38 25.3375 161.266 25.1266 162.933 25.1266L164.557 25.1055V25.8017Z" fill="#FF2A23"/>
<path d="M174.199 18.8818C173.734 19.0295 173.144 19.3671 172.87 19.6413L172.363 20.1055V19.4515V18.7764H171.097H169.832V24.2616V29.7468H171.203H172.574V26.5612C172.574 22.7848 172.785 22.1097 174.135 21.4979C174.621 21.2869 175.317 21.097 175.697 21.097H176.372V19.8312V18.5654H175.697C175.317 18.5865 174.642 18.7131 174.199 18.8818Z" fill="#FF2A23"/>
<path d="M180.485 18.9241C179.093 19.4093 177.616 20.8861 177.152 22.2574C176.181 25.0633 177.278 27.9325 179.831 29.2827C180.759 29.768 181.16 29.8524 182.806 29.8524C184.494 29.8524 184.81 29.7891 185.696 29.2827C186.73 28.6709 187.616 27.7216 187.489 27.3629C187.447 27.2363 187.004 26.8988 186.477 26.6245L185.527 26.0971L184.979 26.6456C184.683 26.941 184.072 27.2996 183.607 27.4262C180.359 28.3967 178.122 24.0085 180.696 21.7511C181.983 20.6329 183.629 20.6329 184.937 21.7722L185.654 22.4051L186.603 21.8566C187.131 21.5401 187.553 21.2026 187.553 21.0971C187.553 20.7173 186.413 19.5781 185.569 19.1562C184.388 18.5443 181.92 18.4389 180.485 18.9241Z" fill="#FF2A23"/>
</g>
<defs>
<clipPath id="clip0_7_120">
<rect width="200" height="42.827" fill="white"/>
</clipPath>
</defs>
</svg>
