<svg width="20" height="20" viewBox="0 0 20 20" fill="none" xmlns="http://www.w3.org/2000/svg">
<path d="M9.48779 19.8242C9.48779 19.8242 9.48821 19.8245 9.99979 19.1667L10.5114 19.8245C10.2105 20.0585 9.78871 20.0583 9.48779 19.8242Z" fill="white"/>
<path fill-rule="evenodd" clip-rule="evenodd" d="M9.99984 5C8.15889 5 6.6665 6.49238 6.6665 8.33333C6.6665 10.1742 8.15889 11.6667 9.99984 11.6667C11.8408 11.6667 13.3332 10.1742 13.3332 8.33333C13.3332 6.49238 11.8408 5 9.99984 5ZM8.33317 8.33333C8.33317 7.41286 9.07934 6.66667 9.99984 6.66667C10.9203 6.66667 11.6665 7.41286 11.6665 8.33333C11.6665 9.25383 10.9203 10 9.99984 10C9.07934 10 8.33317 9.25383 8.33317 8.33333Z" fill="white"/>
<path fill-rule="evenodd" clip-rule="evenodd" d="M9.48784 19.8242L9.99984 19.1667C10.5114 19.8245 10.5123 19.8237 10.5123 19.8237L10.5139 19.8226L10.5191 19.8185L10.5373 19.8042C10.553 19.7917 10.5756 19.7739 10.6047 19.7507C10.6627 19.7043 10.7466 19.6364 10.8526 19.5489C11.0645 19.374 11.3653 19.12 11.7253 18.7999C12.4443 18.1608 13.4054 17.2534 14.3693 16.1825C15.3307 15.1143 16.3108 13.8658 17.0543 12.544C17.7935 11.2298 18.3332 9.78275 18.3332 8.33333C18.3332 6.1232 17.4552 4.00358 15.8924 2.44077C14.3296 0.877975 12.21 0 9.99984 0C7.7897 0 5.67009 0.877975 4.10728 2.44077C2.54448 4.00358 1.6665 6.1232 1.6665 8.33333C1.6665 9.78275 2.20619 11.2298 2.9454 12.544C3.68895 13.8658 4.66903 15.1143 5.63043 16.1825C6.59425 17.2534 7.55535 18.1608 8.27433 18.7999C8.63442 19.12 8.93517 19.374 9.14709 19.5489C9.25309 19.6364 9.337 19.7043 9.395 19.7507C9.42409 19.7739 9.44667 19.7917 9.46234 19.8042L9.48059 19.8185L9.48575 19.8226L9.48784 19.8242ZM5.2858 3.61929C6.53604 2.36904 8.23173 1.66667 9.99984 1.66667C11.7679 1.66667 13.4637 2.36904 14.7139 3.61929C15.9641 4.86953 16.6665 6.56522 16.6665 8.33333C16.6665 9.38392 16.2687 10.541 15.6017 11.7268C14.9389 12.905 14.044 14.0524 13.1304 15.0675C12.2193 16.0799 11.3053 16.9433 10.6181 17.5542C10.3812 17.7648 10.1719 17.9447 9.99984 18.0898C9.82775 17.9447 9.6185 17.7648 9.38159 17.5542C8.69434 16.9433 7.78043 16.0799 6.86925 15.0675C5.95565 14.0524 5.06073 12.905 4.39803 11.7268C3.73099 10.541 3.33317 9.38392 3.33317 8.33333C3.33317 6.56522 4.03555 4.86953 5.2858 3.61929Z" fill="white"/>
</svg>
