<svg width="20" height="20" viewBox="0 0 20 20" fill="none" xmlns="http://www.w3.org/2000/svg">
<path d="M11.6667 2.5H8.33333C7.8731 2.5 7.5 2.8731 7.5 3.33333V4.16667C7.5 4.6269 7.8731 5 8.33333 5H11.6667C12.1269 5 12.5 4.6269 12.5 4.16667V3.33333C12.5 2.8731 12.1269 2.5 11.6667 2.5Z" stroke="white" stroke-width="1.5" stroke-linecap="round" stroke-linejoin="round"/>
<path d="M7.5 10.8333L9.16667 12.5L12.5 9.16663" stroke="white" stroke-width="1.5" stroke-linecap="round" stroke-linejoin="round"/>
<path d="M14.9998 3.33337C15.2209 3.33337 15.4328 3.42117 15.5891 3.57745C15.7454 3.73373 15.8332 3.94569 15.8332 4.16671V16.6667C15.8332 16.8877 15.7454 17.0997 15.5891 17.256C15.4328 17.4122 15.2209 17.5 14.9998 17.5H4.99984C4.77882 17.5 4.56686 17.4122 4.41058 17.256C4.2543 17.0997 4.1665 16.8877 4.1665 16.6667V4.16671C4.1665 3.94569 4.2543 3.73373 4.41058 3.57745C4.56686 3.42117 4.77882 3.33337 4.99984 3.33337" stroke="white" stroke-width="1.5" stroke-linecap="round" stroke-linejoin="round"/>
</svg>
